<svg id="구성_요소_16_2" data-name="구성 요소 16 – 2" xmlns="http://www.w3.org/2000/svg" width="24" height="24" viewBox="0 0 24 24">
    <defs>
        <clipPath id="clip-path">
            <path id="사각형_279" data-name="사각형 279" style="fill:none" d="M0 0h24v24H0z"/>
        </clipPath>
        <style>
            .cls-4{fill:#c4c4c4}
        </style>
    </defs>
    <g id="그룹_43" data-name="그룹 43" style="clip-path:url(#clip-path)">
        <path id="패스_27" data-name="패스 27" class="cls-4" d="m12.552 12 7.293-7.293a1 1 0 0 0-1.414-1.414l-8 8a1 1 0 0 0 0 1.414l8 8a1 1 0 0 0 1.414-1.414z"/>
        <path id="패스_28" data-name="패스 28" class="cls-4" d="m6.276 12 7.293-7.293a1 1 0 0 0-1.414-1.414l-8 8a1 1 0 0 0 0 1.414l8 8a1 1 0 0 0 1.414-1.414z"/>
    </g>
</svg>
