<svg id="요일_코너" data-name="요일 코너" xmlns="http://www.w3.org/2000/svg" width="28" height="28" viewBox="0 0 28 28">
    <defs>
        <style>
            .cls-2{fill:#c4c4c4}
        </style>
    </defs>
    <path id="사각형_115" data-name="사각형 115" style="fill:none;opacity:.1" d="M0 0h28v28H0z"/>
    <g id="그룹_9" data-name="그룹 9" transform="translate(-285.25 -225.807)">
        <path id="패스_9" data-name="패스 9" class="cls-2" d="M306.639 230.24v-.933a1.167 1.167 0 1 0-2.333 0v.933h-10.112v-.933a1.167 1.167 0 1 0-2.333 0v.933h-3.111v21.234h21V230.24zm.778 2.334v1.51h-16.334v-1.51zm-16.334 16.566v-12.723h16.334v12.723z"/>
        <path id="패스_10" data-name="패스 10" class="cls-2" d="M291.667 241.791h3.966v-3.737h-3.966zm1.166-2.57h1.634v1.4h-1.634z"/>
        <path id="패스_11" data-name="패스 11" class="cls-2" d="M297.266 241.791h3.968v-3.737h-3.968zm1.167-2.57h1.634v1.4h-1.634z"/>
        <path id="패스_12" data-name="패스 12" class="cls-2" d="M302.867 241.791h3.966v-3.737h-3.966zm1.166-2.57h1.634v1.4h-1.634z"/>
        <path id="패스_13" data-name="패스 13" class="cls-2" d="M291.667 247.4h3.966v-3.737h-3.966zm1.166-2.57h1.634v1.4h-1.634z"/>
        <path id="패스_14" data-name="패스 14" class="cls-2" d="M297.266 247.4h3.968v-3.737h-3.968zm1.167-2.57h1.634v1.4h-1.634z"/>
        <path id="패스_15" data-name="패스 15" class="cls-2" d="M302.867 247.4h3.966v-3.737h-3.966zm1.166-2.57h1.634v1.4h-1.634z"/>
    </g>
</svg>
