<svg xmlns="http://www.w3.org/2000/svg" width="28" height="28" viewBox="0 0 28 28">
    <path data-name="사각형 116" style="fill:none;opacity:.1" d="M0 0h28v28H0z"/>
    <path data-name="패스 16" d="M324.221 231.514v13.717a4.155 4.155 0 0 0-1.138-.167c-1.946 0-3.471 1.272-3.471 2.9s1.525 2.9 3.471 2.9a3.354 3.354 0 0 0 3.37-2.217h.1v-10.571l10.5-1.909v6.807a4.153 4.153 0 0 0-1.137-.167c-1.947 0-3.471 1.273-3.471 2.9s1.524 2.9 3.471 2.9a3.337 3.337 0 0 0 3.4-2.295h.074v-17.556zm-1.138 17.011c-.705 0-1.137-.365-1.137-.564s.432-.564 1.137-.564 1.138.365 1.138.564-.432.564-1.138.564zm3.471-12.82v-2.244l10.5-1.909v2.248zm9.363 10.563c-.706 0-1.138-.365-1.138-.563s.432-.564 1.138-.564 1.137.365 1.137.564-.432.563-1.137.563z" transform="translate(-315.5 -225.807)" style="fill:#c4c4c4"/>
</svg>
