<svg id="구성_요소_21_4" data-name="구성 요소 21 – 4" xmlns="http://www.w3.org/2000/svg" width="20" height="20" viewBox="0 0 20 20">
    <defs>
        <clipPath id="clip-path">
            <path id="사각형_341" data-name="사각형 341" style="fill:none" d="M0 0h20v20H0z"/>
        </clipPath>
        <style>
            
        </style>
    </defs>
    <g id="그룹_52" data-name="그룹 52" style="clip-path:url(#clip-path)">
        <path id="패스_33" data-name="패스 33" d="M17.542 18.667a.83.83 0 0 1-.411-.108l-7.922-4.488H3.272a.833.833 0 0 1-.833-.833v-5.81a.834.834 0 0 1 .833-.833h5.937l1.3-.737 6.62-3.75a.833.833 0 0 1 1.244.725v15a.834.834 0 0 1-.833.833M4.106 12.4h5.323a.836.836 0 0 1 .411.108l6.868 3.892V4.262L9.84 8.153a.836.836 0 0 1-.411.108H4.106z" transform="translate(-.406 -.333)" style="fill:#c4c4c4"/>
    </g>
</svg>
